HIERARCHY
ROOT SpineBase
{
  OFFSET 0.000000 0.000000 0.000000
  CHANNELS 6 Xposition Yposition Zposition Zrotation Xrotation Yrotation
  JOINT SpineMid
  {
    OFFSET -0.000000 30.950603 0.000000
    CHANNELS 3 Zrotation Xrotation Yrotation
    JOINT SpineShoulder
    {
      OFFSET -0.175573 23.013508 -0.883239
      CHANNELS 3 Zrotation Xrotation Yrotation
      JOINT Neck
      {
        OFFSET -0.094083 7.623138 -0.608265
        CHANNELS 3 Zrotation Xrotation Yrotation
        JOINT Head
        {
          OFFSET -4.276551 12.958727 1.105344
          CHANNELS 3 Zrotation Xrotation Yrotation
          End Site
          {
            OFFSET 0 0 0
          }
        }
      }
      JOINT ShoulderLeft
      {
        OFFSET -15.721763 -3.642652 9.065242
        CHANNELS 3 Zrotation Xrotation Yrotation
        JOINT ElbowLeft
        {
          OFFSET -2.772531 -22.549754 2.739993
          CHANNELS 3 Zrotation Xrotation Yrotation
          JOINT WristLeft
          {
            OFFSET 2.738127 -5.824145 -25.433481
            CHANNELS 3 Zrotation Xrotation Yrotation
            JOINT HandLeft
            {
              OFFSET -0.067768 -1.491736 -3.745615
              CHANNELS 3 Zrotation Xrotation Yrotation
              JOINT HandTipLeft
              {
                OFFSET 1.152063 -0.142419 -7.207023
                CHANNELS 3 Zrotation Xrotation Yrotation
                End Site
                {
                  OFFSET 0 0 0
                }
              }
              JOINT ThumbLeft
              {
                OFFSET 4.091318 0.367240 -2.646419
                CHANNELS 3 Zrotation Xrotation Yrotation
                End Site
                {
                  OFFSET 0 0 0
                }
              }
            }
          }
        }
      }
      JOINT ShoulderRight
      {
        OFFSET 14.356696 -3.419762 -7.912085
        CHANNELS 3 Zrotation Xrotation Yrotation
        JOINT ElbowRight
        {
          OFFSET 7.377083 -21.090202 -3.902972
          CHANNELS 3 Zrotation Xrotation Yrotation
          JOINT WristRight
          {
            OFFSET -16.862897 -10.500589 -12.838001
            CHANNELS 3 Zrotation Xrotation Yrotation
            JOINT HandRight
            {
              OFFSET -5.838487 1.473410 -3.165476
              CHANNELS 3 Zrotation Xrotation Yrotation
              JOINT HandTipRight
              {
                OFFSET -3.589669 -0.313817 -2.065952
                CHANNELS 3 Zrotation Xrotation Yrotation
                End Site
                {
                  OFFSET 0 0 0
                }
              }
              JOINT ThumbRight
              {
                OFFSET 0.398908 -1.451421 -3.389837
                CHANNELS 3 Zrotation Xrotation Yrotation
                End Site
                {
                  OFFSET 0 0 0
                }
              }
            }
          }
        }
      }
    }
  }
  JOINT HipLeft
  {
    OFFSET -6.286511 0.172755 -0.618242
    CHANNELS 3 Zrotation Xrotation Yrotation
    JOINT KneeLeft
    {
      OFFSET 3.562970 -38.757894 -0.574239
      CHANNELS 3 Zrotation Xrotation Yrotation
      JOINT AnkleLeft
      {
        OFFSET 8.767673 -36.160009 2.198729
        CHANNELS 3 Zrotation Xrotation Yrotation
        JOINT FootLeft
        {
          OFFSET -1.257381 -5.431968 -6.605389
          CHANNELS 3 Zrotation Xrotation Yrotation
          End Site
          {
            OFFSET 0 0 0
          }
        }
      }
    }
  }
  JOINT HipRight
  {
    OFFSET 6.626545 1.781198 -6.396483
    CHANNELS 3 Zrotation Xrotation Yrotation
    JOINT KneeRight
    {
      OFFSET 6.919867 -33.970574 -6.451590
      CHANNELS 3 Zrotation Xrotation Yrotation
      JOINT AnkleRight
      {
        OFFSET 12.916976 -37.879631 15.909120
        CHANNELS 3 Zrotation Xrotation Yrotation
        JOINT FootRight
        {
          OFFSET -3.795086 -3.872248 -8.500212
          CHANNELS 3 Zrotation Xrotation Yrotation
          End Site
          {
            OFFSET 0 0 0
          }
        }
      }
    }
  }
}
MOTION
Frames: 13
Frame Time: 0.033333
-17.526664 83.031806 341.115353 0.000000 0.000000 24.107218 -0.000000 0.000000 -24.107218 -0.000000 0.000000 0.000000 -0.000000 0.000000 0.000000 0.000000 0.000000 0.000000 -0.000000 0.000000 0.000000 -0.000000 0.000000 0.000000 -0.000000 0.000000 0.000000 -0.000000 0.000000 0.000000 0.000000 0.000000 0.000000 0.000000 0.000000 0.000000 -0.000000 0.000000 0.000000 -0.000000 0.000000 0.000000 -0.000000 0.000000 0.000000 -0.000000 0.000000 0.000000 0.000000 0.000000 0.000000 0.000000 0.000000 0.000000 -0.000000 0.000000 -24.107218 -0.000000 0.000000 0.000000 -0.000000 0.000000 0.000000 0.000000 0.000000 0.000000 -0.000000 0.000000 -24.107218 -0.000000 0.000000 0.000000 -0.000000 0.000000 0.000000 0.000000 0.000000 0.000000
-18.446600 83.046297 340.638511 -0.046328 0.769225 23.586873 -0.265352 -0.723495 -23.588238 -0.000000 0.000000 0.000000 0.731755 1.486269 0.417264 0.000000 0.000000 0.000000 -0.204405 0.920465 -0.136473 -0.279471 -1.709227 1.946485 -0.730762 7.892679 1.170380 -0.046979 -14.194794 5.334314 0.000000 0.000000 0.000000 0.000000 0.000000 0.000000 -0.000000 0.000000 0.000000 -0.000000 0.000000 0.000000 1.765496 -0.299829 2.446310 -0.797406 -0.092415 -4.178525 0.000000 0.000000 0.000000 0.000000 0.000000 0.000000 -0.265352 -0.723495 -23.588238 1.531525 -0.969337 -0.128470 -0.355926 -0.828734 -0.879900 0.000000 0.000000 0.000000 1.590038 4.382059 -22.486573 0.236418 -5.426568 -1.149751 2.314363 -2.178270 -3.091480 0.000000 0.000000 0.000000
-19.268580 83.060773 340.173804 -0.069103 1.479751 23.181199 -0.067970 0.076612 -23.176013 -0.091642 0.006212 -0.007965 1.606228 1.231810 0.799500 0.000000 0.000000 0.000000 -0.146942 0.093429 -0.248834 -0.451094 -3.105162 3.491601 -0.712554 13.801959 1.118997 -0.285958 -25.931374 10.823781 0.000000 0.000000 0.000000 0.000000 0.000000 0.000000 0.962377 -0.788588 0.146596 -1.125994 0.049043 -0.878303 3.909508 -1.176020 5.872496 -1.841841 -0.120585 -8.320221 0.000000 0.000000 0.000000 0.000000 0.000000 0.000000 -0.519060 -1.387467 -23.186592 2.786042 -1.740847 -0.208932 -0.780454 -1.217134 -1.526191 0.000000 0.000000 0.000000 2.729531 8.001504 -21.245877 -0.033986 -10.669282 -2.578027 4.539011 -3.101129 -5.461211 0.000000 0.000000 0.000000
-19.992602 83.075233 339.721235 -0.068067 2.129573 22.882651 -0.103218 0.111700 -22.875019 -0.131211 0.003505 -0.011161 2.203827 1.623008 1.107948 0.000000 0.000000 0.000000 -0.251695 -0.085042 -0.337139 -0.501654 -4.137533 4.538886 0.006750 17.818049 -0.114815 -0.231374 -34.317257 15.455604 0.000000 0.000000 0.000000 0.000000 0.000000 0.000000 1.260583 -1.237480 0.197636 -1.378776 0.099888 -1.289159 5.532003 -1.347672 9.027250 -2.932800 -0.138199 -12.497084 0.000000 0.000000 0.000000 0.000000 0.000000 0.000000 -1.098304 -3.051324 -23.012801 3.665863 -1.206351 -0.222721 -1.281663 -1.121822 -1.938746 0.000000 0.000000 0.000000 3.473528 10.751982 -20.334693 -0.445080 -13.765751 -3.521858 6.313039 -4.475426 -7.603658 0.000000 0.000000 0.000000
-20.618666 83.089680 339.280802 -0.043051 2.716992 22.684884 -0.138947 0.144571 -22.675383 -0.166389 -0.003474 -0.013629 2.666676 1.860590 1.353955 0.000000 0.000000 0.000000 -0.379939 -0.407614 -0.403114 -0.424756 -4.766144 5.019811 1.311497 20.041489 -2.435650 0.080264 -38.993112 18.591410 0.000000 0.000000 0.000000 0.000000 0.000000 0.000000 1.438558 -1.717872 0.229414 -1.423458 0.158299 -1.676183 6.805341 -1.239132 12.183690 -3.931282 -0.192588 -16.709976 0.000000 0.000000 0.000000 0.000000 0.000000 0.000000 -1.412414 -3.816252 -22.854255 4.375047 -1.355810 -0.252468 -1.867753 -0.517352 -2.115743 0.000000 0.000000 0.000000 3.876223 12.604408 -19.711441 -1.049077 -15.336376 -4.239999 7.696543 -5.507653 -9.167502 0.000000 0.000000 0.000000
-21.146773 83.104111 338.852506 0.006025 3.240604 22.582868 -0.174926 0.175199 -22.572334 -0.197051 -0.014962 -0.015227 2.996432 1.942735 1.536162 0.000000 0.000000 0.000000 -0.533169 -0.871715 -0.447739 -0.220024 -4.967870 4.904932 3.063783 20.494315 -5.743785 0.260410 -39.878162 19.798341 0.000000 0.000000 0.000000 0.000000 0.000000 0.000000 1.497345 -2.226747 0.238931 -1.260203 0.218538 -2.037002 7.645494 -0.876968 15.224935 -4.737138 -0.327056 -20.930455 0.000000 0.000000 0.000000 0.000000 0.000000 0.000000 -1.707540 -4.443907 -22.786869 4.844057 -1.394337 -0.263008 -2.548655 0.605983 -2.051410 0.000000 0.000000 0.000000 3.982631 13.573317 -19.346770 -1.820502 -15.386999 -4.710102 8.694861 -6.147187 -10.078697 0.000000 0.000000 0.000000
-21.436454 83.143944 338.476630 0.165709 3.616663 22.493176 -0.212053 0.215793 -22.482784 -0.220195 -0.027927 -0.012256 3.179424 1.931144 1.634473 0.000000 0.000000 0.000000 -0.924381 -1.832903 -0.452515 0.198669 -3.714428 4.521626 5.107888 13.956296 -10.920293 -0.650614 -32.532289 18.406427 0.000000 0.000000 0.000000 0.000000 0.000000 0.000000 1.154486 -2.833334 0.191482 0.585008 0.140028 -3.527465 4.016725 1.642769 21.896816 -3.481125 -2.639944 -28.758226 0.000000 0.000000 0.000000 0.000000 0.000000 0.000000 -1.990644 -4.504037 -22.693949 5.030513 -1.859312 -0.309470 -3.607134 3.429314 -1.385203 0.000000 0.000000 0.000000 3.500058 13.379510 -19.194846 -3.058934 -12.429832 -4.723559 12.616312 -14.061033 -10.552106 0.000000 0.000000 0.000000
-21.763408 83.181706 338.025828 0.302147 4.051961 22.578776 -0.230056 0.230789 -22.568045 -0.238547 -0.038578 -0.008560 2.864645 1.393042 1.622960 0.000000 0.000000 0.000000 -1.086407 -2.781979 -0.430677 0.884709 -2.837163 1.688227 6.946843 11.381335 -15.070213 -2.807091 -25.106378 12.956751 0.000000 0.000000 0.000000 0.000000 0.000000 0.000000 0.847214 -3.540423 0.113311 0.474231 0.457810 -3.129246 4.631877 2.119671 23.789664 -3.579111 -3.263331 -34.959951 0.000000 0.000000 0.000000 0.000000 0.000000 0.000000 -2.262201 -4.809070 -22.795314 4.950891 -1.814435 -0.295326 -4.367766 6.013693 -0.975094 0.000000 0.000000 0.000000 2.897537 12.148691 -19.399684 -4.495902 -8.231508 -4.324060 13.673512 -15.134247 -10.550624 0.000000 0.000000 0.000000
-22.024244 83.197640 337.620263 0.395017 4.405650 22.896096 -0.261238 0.241556 -22.887149 -0.247849 -0.065445 -0.006649 2.812715 0.950829 1.592534 0.000000 0.000000 0.000000 -1.233624 -3.453879 -0.426603 1.088624 -2.541379 1.117827 7.319876 9.877389 -16.140219 -3.835577 -20.560746 9.119002 0.000000 0.000000 0.000000 0.000000 0.000000 0.000000 0.186096 -4.460957 -0.032884 2.125364 0.501994 -3.498654 3.060410 3.049919 25.257855 -3.584602 -3.404658 -36.301064 0.000000 0.000000 0.000000 0.000000 0.000000 0.000000 -2.559181 -5.069090 -23.135591 4.821715 -1.431503 -0.232907 -4.987374 7.696845 -0.522338 0.000000 0.000000 0.000000 2.343253 10.815821 -19.873430 -5.826833 -4.154044 -3.768604 13.103034 -13.093206 -9.915287 0.000000 0.000000 0.000000
-22.269797 83.180740 337.280320 0.464082 4.672644 23.191470 -0.310837 0.282499 -23.187094 -0.276757 -0.102099 -0.009717 2.784834 0.716508 1.610291 0.000000 0.000000 0.000000 -1.397747 -4.172033 -0.417105 1.406346 -2.369817 0.301974 6.197148 10.232977 -13.523518 -3.421726 -16.606141 13.965021 0.000000 0.000000 0.000000 0.000000 0.000000 0.000000 0.208508 -4.707615 -0.032817 2.461378 0.274995 -3.568795 3.432753 3.070424 25.281928 -4.075472 -3.120815 -35.570749 0.000000 0.000000 0.000000 0.000000 0.000000 0.000000 -2.833140 -5.442669 -23.471762 4.655576 -0.632645 -0.119530 -5.429532 8.208451 -0.150015 0.000000 0.000000 0.000000 1.871571 9.083794 -20.447885 -7.079241 -0.349255 -3.006048 10.977536 -8.529894 -8.687879 0.000000 0.000000 0.000000
-22.466110 83.140933 337.012599 0.489391 4.843015 23.608570 -0.341441 0.325116 -23.607747 -0.303383 -0.120506 -0.013751 3.068306 0.450985 1.582920 0.000000 0.000000 0.000000 -1.486483 -4.636998 -0.414111 1.757385 -1.818572 -0.604525 3.061625 9.051052 -6.599645 -2.244030 -13.319662 13.834882 0.000000 0.000000 0.000000 0.000000 0.000000 0.000000 0.256380 -4.883436 -0.028818 2.127408 0.420227 -3.368297 6.084271 2.172309 24.491062 -5.475658 -2.072394 -34.740022 0.000000 0.000000 0.000000 0.000000 0.000000 0.000000 -3.079455 -5.753065 -23.930092 4.550577 0.250577 0.009088 -5.613456 8.086149 -0.034496 0.000000 0.000000 0.000000 1.422458 7.909767 -21.037706 -7.599638 2.803066 -2.071798 7.636483 -3.322778 -7.175441 0.000000 0.000000 0.000000
-22.596596 83.088050 336.813815 0.483716 4.949272 23.940349 -0.362889 0.345407 -23.941745 -0.318925 -0.132545 -0.017127 3.374544 0.065190 1.495488 0.000000 0.000000 0.000000 -1.731434 -5.273837 -0.415971 1.968262 -1.883659 -0.592545 1.041268 11.351442 -2.007498 -1.070952 -14.382070 10.942397 0.000000 0.000000 0.000000 0.000000 0.000000 0.000000 0.306816 -4.984899 -0.023642 1.415498 0.725813 -2.940159 9.750873 0.895903 23.590525 -7.431316 -0.591621 -33.604219 0.000000 0.000000 0.000000 0.000000 0.000000 0.000000 -3.301809 -6.023262 -24.303368 4.557175 1.067114 0.125276 -5.462378 7.050817 -0.201653 0.000000 0.000000 0.000000 1.075823 6.946895 -21.520665 -7.674735 4.546624 -1.421238 5.383224 -3.794596 -3.856409 0.000000 0.000000 0.000000
-22.662418 83.051617 336.717212 0.473000 4.951958 24.154675 -0.380572 0.369631 -24.158007 -0.338461 -0.136182 -0.021220 3.762099 -0.236640 1.402120 0.000000 0.000000 0.000000 -1.587158 -5.337160 -0.385828 1.877742 -1.933536 -0.647760 -2.352273 11.200717 5.446862 0.788879 -13.777364 11.693686 0.000000 0.000000 0.000000 0.000000 0.000000 0.000000 0.364315 -4.997013 -0.016686 0.597291 1.087566 -2.474112 12.530296 -0.539772 21.847451 -8.220457 -0.102166 -29.044827 0.000000 0.000000 0.000000 0.000000 0.000000 0.000000 -3.421156 -6.049664 -24.533211 4.689823 1.446530 0.186871 -5.308636 5.114403 -0.187533 0.000000 0.000000 0.000000 0.896467 6.336876 -21.848677 -7.671323 5.169706 -1.168004 5.059235 -3.115111 -3.915691 0.000000 0.000000 0.000000
